<?xml version="1.0" encoding="iso-8859-1"?>
<!-- Generator: Adobe Illustrator 19.0.0, SVG Export Plug-In . SVG Version: 6.00 Build 0)  -->
<svg version="1.1" id="Capa_1" xmlns="http://www.w3.org/2000/svg" xmlns:xlink="http://www.w3.org/1999/xlink" x="0px" y="0px"
	 viewBox="0 0 511.999 511.999" style="enable-background:new 0 0 511.999 511.999;" xml:space="preserve">
<path style="fill:#6B7F9E;" d="M449.693,71.741v295.195c0,7.367-5.979,13.346-13.346,13.346H20.842
	c-7.367,0-13.346-5.979-13.346-13.346V71.741c0-7.367,5.979-13.346,13.346-13.346h415.504
	C443.714,58.395,449.693,64.374,449.693,71.741z"/>
<path style="fill:#586C89;" d="M409.592,230.674c-1.459,0-2.901,0.027-4.333,0.08c-43.606,1.554-81.239,26.509-100.784,62.671H7.497
	v27.433h442.196v-17.947v-9.486v-55.847C437.157,233.103,423.659,230.674,409.592,230.674z"/>
<path style="fill:#798DAA;" d="M449.693,88.487v-16.74c0-7.367-5.979-13.346-13.346-13.346H20.842
	c-7.367,0-13.346,5.979-13.346,13.346v16.739L449.693,88.487L449.693,88.487z"/>
<path style="fill:#C8E7F9;" d="M449.693,320.858v46.079c0,7.367-5.979,13.346-13.346,13.346H20.842
	c-7.367,0-13.346-5.979-13.346-13.346v-46.079H449.693z"/>
<rect x="7.5" y="320.862" style="fill:#E1F1F9;" width="442.193" height="24.03"/>
<path style="fill:#C8E7F9;" d="M321.127,441.96v11.638H136.063V441.96c0-6.424,5.214-11.629,11.638-11.629h1.237
	c14.645,0,26.656-11.228,27.92-25.535c0.071-0.819,0.107-1.655,0.107-2.491v-22.021h103.263v22.021c0,0.836,0.036,1.673,0.107,2.491
	c1.263,14.307,13.275,25.535,27.92,25.535h1.237C315.913,430.331,321.127,435.536,321.127,441.96z"/>
<path style="fill:#B5DFF6;" d="M280.333,404.795H176.857c0.071-0.819,0.107-1.655,0.107-2.491v-22.021h103.263v22.021
	C280.226,403.14,280.262,403.976,280.333,404.795z"/>
<path style="fill:#00E7F1;" d="M504.496,350.107c0,19.455-5.846,37.535-15.882,52.583c-17.019,25.518-46.055,42.32-79.021,42.32
	c-7.07,0-13.966-0.769-20.591-2.241c-42.526-9.397-74.322-47.311-74.322-92.663c0-3.41,0.184-6.777,0.53-10.101
	c4.926-46.542,43.5-83.059,90.941-84.748c1.137-0.043,2.284-0.065,3.443-0.065C462.003,255.194,504.496,297.687,504.496,350.107z"/>
<g>
	<path style="fill:#FF90C1;" d="M407.243,405.635l-18.242,37.134c-42.526-9.397-74.322-47.311-74.322-92.663
		c0-3.41,0.184-6.777,0.53-10.101l35.737,27.65l-2.165,23.493l20.862,14.486l22.984-11.996L407.243,405.635z"/>
	<path style="fill:#FF90C1;" d="M504.496,350.107c0,19.455-5.846,37.535-15.882,52.583l-19.119-2.014l-9.744-47.094l-25.442-14.074
		l-24.716,10.599l-13.717-26.838l25.983-27.607l-19.487-17.322l3.778-23.082c1.137-0.043,2.284-0.065,3.443-0.065
		C462.003,255.194,504.496,297.687,504.496,350.107z"/>
	<path style="fill:#FF90C1;" d="M102.648,219.112c0,0,0,0-0.008-0.008c-0.791-0.76-58.23-56.331-42.347-78.524
		c16.309-22.79,41.75,10.899,42.347,11.689c0.008,0.008,0.008,0.016,0.008,0.016s25.844-34.766,42.347-11.705
		C160.986,162.928,102.648,219.112,102.648,219.112z"/>
</g>
<rect x="191.771" y="139.751" style="fill:#00E7F1;" width="215.471" height="36.14"/>
<path d="M108.025,65.901h328.318c3.223,0,5.846,2.622,5.846,5.846v79.749c0,4.143,3.358,7.5,7.5,7.5s7.5-3.357,7.5-7.5v-79.75
	c0-11.494-9.352-20.846-20.846-20.846H108.025c-4.142,0-7.5,3.357-7.5,7.5S103.883,65.901,108.025,65.901z"/>
<path d="M457.19,259.454v-73.456c0-4.143-3.358-7.5-7.5-7.5s-7.5,3.357-7.5,7.5v67.019c-10.245-3.449-21.208-5.321-32.6-5.321
	c-43.523,0-80.786,27.294-95.588,65.662h-68.805c-4.142,0-7.5,3.357-7.5,7.5s3.358,7.5,7.5,7.5h64.314
	c-1.522,7.012-2.332,14.287-2.332,21.748c0,7.792,0.879,15.382,2.535,22.68H20.846c-3.223,0-5.846-2.622-5.846-5.846v-38.582
	h193.724c4.142,0,7.5-3.357,7.5-7.5s-3.358-7.5-7.5-7.5H15V71.746c0-3.224,2.623-5.846,5.846-5.846h49.08c4.142,0,7.5-3.357,7.5-7.5
	s-3.358-7.5-7.5-7.5h-49.08C9.352,50.901,0,60.252,0,71.746v295.193c0,11.494,9.352,20.846,20.846,20.846h148.617v14.517
	c0,11.317-9.207,20.524-20.524,20.524h-1.24c-10.551,0-19.136,8.584-19.136,19.136v11.636c0,4.143,3.358,7.5,7.5,7.5h185.064
	c4.142,0,7.5-3.357,7.5-7.5v-11.636c0-10.552-8.584-19.136-19.136-19.136h-1.24c-11.317,0-20.524-9.207-20.524-20.524v-14.517
	h26.634c15.041,37.878,52.056,64.73,95.228,64.73c56.469,0,102.411-45.941,102.411-102.411
	C512,310.811,489.749,276.62,457.19,259.454z M308.251,437.827h1.24c2.28,0,4.136,1.855,4.136,4.136v4.136H143.563v-4.136
	c0-2.28,1.855-4.136,4.136-4.136h1.24c16.117,0,29.753-10.793,34.082-25.528h91.148
	C278.498,427.034,292.134,437.827,308.251,437.827z M272.727,397.298h-88.265v-9.513h88.265V397.298z M497,350.106
	c0,16.295-4.487,31.56-12.283,44.633l-8.987-0.946l-8.634-41.729c-0.443-2.143-1.799-3.984-3.714-5.043l-25.441-14.074
	c-2.027-1.122-4.458-1.244-6.586-0.33l-18.273,7.836l-8.122-15.891l22.362-23.758c1.389-1.476,2.121-3.45,2.031-5.475
	c-0.09-2.023-0.996-3.926-2.51-5.271l-16.402-14.579l2.083-12.728C459.368,264.304,497,302.89,497,350.106z M322.317,354.988
	l20.783,16.08l-1.788,19.393c-0.248,2.691,0.971,5.308,3.191,6.849l20.862,14.485c2.291,1.591,5.275,1.779,7.748,0.489l18.588-9.701
	l6.189,5.079l-12.928,26.316C350.215,423.759,324.392,392.49,322.317,354.988z M409.588,437.517c-3.177,0-6.313-0.175-9.402-0.507
	l13.788-28.067c1.535-3.125,0.718-6.896-1.973-9.104l-14.615-11.995c-2.325-1.906-5.563-2.242-8.229-0.852l-18.963,9.896
	l-13.544-9.403l1.764-19.139c0.235-2.554-0.851-5.051-2.879-6.62l-32.331-25.015c5.842-37.824,36.022-67.715,73.983-73.13
	l-2.218,13.549c-0.416,2.537,0.498,5.109,2.418,6.817l13.72,12.195l-20.695,21.987c-2.172,2.308-2.659,5.731-1.217,8.554
	l13.717,26.839c1.796,3.514,6.007,5.037,9.634,3.479l21.343-9.152l19.213,10.629l9.045,43.72c0.661,3.196,3.313,5.598,6.559,5.939
	l5.659,0.596C458.363,426.401,435.25,437.517,409.588,437.517z"/>
<path d="M131.678,125.179c-11.696-0.063-22.549,8.884-29.033,15.618c-6.446-6.694-17.217-15.619-28.828-15.619
	c-0.067,0-0.138,0.001-0.206,0.001c-5.29,0.049-12.952,2.002-19.416,11.036c-8.873,12.401-3.878,30.883,15.27,56.503
	c12.805,17.132,27.363,31.208,27.977,31.799c1.452,1.398,3.328,2.098,5.203,2.098c1.875,0,3.75-0.699,5.203-2.098
	c0.613-0.591,15.172-14.667,27.976-31.799c19.148-25.62,24.143-44.102,15.27-56.503
	C144.629,127.181,136.967,125.228,131.678,125.179z M123.904,183.611c-7.567,10.143-15.992,19.346-21.259,24.835
	c-5.268-5.489-13.691-14.692-21.259-24.835c-13.635-18.274-19.239-32.729-14.991-38.667c3.029-4.233,5.641-4.747,7.342-4.765
	c0.03,0,0.059-0.001,0.089-0.001c7.573,0,17.997,10.159,22.8,16.582c1.413,1.9,3.644,3.018,6.011,3.021c0.004,0,0.007,0,0.011,0
	c2.364,0,4.593-1.119,6.009-3.012c4.829-6.457,15.309-16.672,22.895-16.59c1.701,0.018,4.313,0.531,7.342,4.765
	C143.143,150.881,137.539,165.336,123.904,183.611z"/>
<path d="M414.743,175.896v-36.14c0-4.143-3.358-7.5-7.5-7.5h-215.47c-4.142,0-7.5,3.357-7.5,7.5v36.14c0,4.143,3.358,7.5,7.5,7.5
	h215.469C411.385,183.396,414.743,180.038,414.743,175.896z M399.743,168.396h-200.47v-21.14h200.469v21.14H399.743z"/>
<path d="M340.489,210.856c0-4.143-3.358-7.5-7.5-7.5H191.773c-4.142,0-7.5,3.357-7.5,7.5c0,4.143,3.358,7.5,7.5,7.5h141.216
	C337.131,218.356,340.489,214.998,340.489,210.856z"/>
<path d="M275.749,238.746c0-4.143-3.358-7.5-7.5-7.5h-76.475c-4.142,0-7.5,3.357-7.5,7.5c0,4.143,3.358,7.5,7.5,7.5h76.475
	C272.391,246.246,275.749,242.889,275.749,238.746z"/>
<path d="M191.773,257.452c-4.142,0-7.5,3.357-7.5,7.5s3.358,7.5,7.5,7.5h40.57c4.142,0,7.5-3.357,7.5-7.5s-3.358-7.5-7.5-7.5
	H191.773z"/>
<g>
</g>
<g>
</g>
<g>
</g>
<g>
</g>
<g>
</g>
<g>
</g>
<g>
</g>
<g>
</g>
<g>
</g>
<g>
</g>
<g>
</g>
<g>
</g>
<g>
</g>
<g>
</g>
<g>
</g>
</svg>
