<svg height="481.35294pt" viewBox="0 0 481.35294 481.35294" width="481.35294pt" xmlns="http://www.w3.org/2000/svg"><path d="m184.578125 32.578125c-83.949219 0-152 68.050781-152 152 0 83.945313 68.050781 152 152 152 83.945313 0 152-68.054687 152-152-.09375-83.910156-68.09375-151.910156-152-152zm0 288c-75.113281 0-136-60.890625-136-136 0-75.113281 60.886719-136 136-136 75.109375 0 136 60.886719 136 136-.085937 75.074219-60.925781 135.914063-136 136zm0 0"/><path d="m469.761719 413.191406-90.511719-90.503906c-3.175781-3-8.140625-3-11.3125 0l-5.648438 5.648438-31.824218-31.824219c59.136718-77.027344 48.351562-186.726563-24.648438-250.761719-73.003906-64.039062-183.171875-60.441406-251.839844 8.226562-68.667968 68.667969-72.265624 178.835938-8.226562 251.839844 64.035156 73 173.734375 83.785156 250.761719 24.648438l31.824219 31.824218-5.648438 5.648438c-3.121094 3.125-3.121094 8.1875 0 11.3125l90.503906 90.511719c15.640625 15.503906 40.875 15.449219 56.445313-.125 15.574219-15.570313 15.628906-40.804688.125-56.445313zm-453.183594-228.613281c0-92.785156 75.214844-168 168-168 92.78125 0 168 75.214844 168 168 0 92.78125-75.21875 168-168 168-92.742187-.105469-167.894531-75.261719-168-168zm303.574219 124.246094 30.824218 30.792969-11.359374 11.359374-30.792969-30.792968c3.9375-3.625 7.710937-7.414063 11.328125-11.359375zm138.296875 149.601562c-9.375 9.375-24.570313 9.375-33.945313 0l-84.847656-84.832031 33.9375-33.9375 84.855469 84.847656c9.351562 9.382813 9.351562 24.5625 0 33.945313zm0 0"/><path d="m302.535156 179.242188c-2.070312-2.3125-49.804687-54.648438-111.277344-58.3125-4.441406-.46875-8.921874-.46875-13.359374 0-61.472657 3.664062-109.210938 56-111.28125 58.3125-2.71875 3.035156-2.71875 7.632812 0 10.671874 2.070312 2.3125 49.808593 54.648438 111.28125 58.3125 4.4375.46875 8.917968.46875 13.359374 0 61.472657-3.664062 109.207032-56 111.277344-58.3125 2.722656-3.039062 2.722656-7.636718 0-10.671874zm-69.957031 5.335937c0 26.507813-21.492187 48-48 48-26.511719 0-48-21.492187-48-48 0-26.511719 21.488281-48 48-48 26.496094.023437 47.972656 21.5 48 48zm-102.402344-33.546875c-12.773437 20.519531-12.773437 46.515625 0 67.035156-16.960937-8.933594-32.578125-20.207031-46.398437-33.488281 13.804687-13.316406 29.425781-24.609375 46.398437-33.546875zm108.800781 67.089844c12.773438-20.519532 12.773438-46.515625 0-67.03125 16.960938 8.929687 32.578126 20.203125 46.398438 33.488281-13.804688 13.3125-29.425781 24.609375-46.398438 33.542969zm0 0"/><path d="m184.578125 216.578125c17.671875 0 32-14.328125 32-32 0-17.675781-14.328125-32-32-32-17.675781 0-32 14.324219-32 32 0 17.671875 14.324219 32 32 32zm0-48c8.835937 0 16 7.164063 16 16s-7.164063 16-16 16-16-7.164063-16-16 7.164063-16 16-16zm0 0"/></svg>